<?xml version="1.0" encoding="UTF-8" standalone="no"?>
<!DOCTYPE svg PUBLIC "-//W3C//DTD SVG 1.1//EN" "http://www.w3.org/Graphics/SVG/1.1/DTD/svg11.dtd">
<svg width="100%" height="100%" viewBox="0 0 64 64" version="1.1" xmlns="http://www.w3.org/2000/svg" xmlns:xlink="http://www.w3.org/1999/xlink" xml:space="preserve" xmlns:serif="http://www.serif.com/" style="fill-rule:evenodd;clip-rule:evenodd;stroke-linejoin:round;stroke-miterlimit:2;">
    <g id="g11" transform="matrix(1,0,0,1,1.3245,2.7985)">
        <path id="polygon13" d="M5.402,13.541L0.511,12.364L0.511,5.078L5.402,6.763L5.402,13.541Z" style="fill:rgb(128,128,128);fill-rule:nonzero;"/>
        <path id="polygon15" d="M9.13,41.393L4.455,42.317L4.455,15.226L9.13,16.215L9.13,41.393Z" style="fill:rgb(128,128,128);fill-rule:nonzero;"/>
        <path id="polygon17" d="M60.662,55.981L34.012,53.917L47.597,40.738L47.597,34.243L28.175,53.465L4.919,51.667L42.222,11.55L36.083,11.882L9.13,41.393L9.13,16.215L11.683,13.201L5.402,13.541L5.402,6.763L27.321,5.066L15.306,18.846L15.306,24.71L33.126,4.617L61.351,2.432L19.834,45.706L25.361,45.997L55.516,15.154L55.516,44.305L52.166,47.454L60.662,47.913L60.662,55.981Z" style="fill:rgb(128,128,128);fill-rule:nonzero;"/>
        <path id="polygon19" d="M9.13,16.215L4.455,15.226L7.159,11.971L11.683,13.201L9.13,16.215Z" style="fill:rgb(128,128,128);fill-rule:nonzero;"/>
        <path id="polygon21" d="M11.004,24.358L11.004,18.039L15.306,18.846L15.306,24.71L11.004,24.358Z" style="fill:rgb(128,128,128);fill-rule:nonzero;"/>
        <path id="polygon23" d="M21.714,47.346L15.82,47.006L19.834,45.706L25.361,45.997L21.714,47.346Z" style="fill:rgb(128,128,128);fill-rule:nonzero;"/>
        <path id="polygon25" d="M11.004,18.039L23.808,3.106L27.321,5.066L15.306,18.846L11.004,18.039Z" style="fill:rgb(128,128,128);fill-rule:nonzero;"/>
        <path id="polygon27" d="M15.306,24.71L11.004,24.358L30.022,2.58L33.126,4.617L15.306,24.71Z" style="fill:rgb(128,128,128);fill-rule:nonzero;"/>
        <path id="polygon29" d="M4.455,42.317L33.195,10.432L36.083,11.882L9.13,41.393L4.455,42.317Z" style="fill:rgb(128,128,128);fill-rule:nonzero;"/>
        <path id="polygon31" d="M4.919,51.667L0,53.344L39.798,10.042L42.222,11.55L4.919,51.667Z" style="fill:rgb(128,128,128);fill-rule:nonzero;"/>
        <path id="polygon33" d="M24.721,55.437L45.597,34.677L47.597,34.243L28.175,53.465L24.721,55.437Z" style="fill:rgb(128,128,128);fill-rule:nonzero;"/>
        <path id="polygon35" d="M47.597,40.738L45.597,41.737L45.597,34.677L47.597,34.243L47.597,40.738Z" style="fill:rgb(128,128,128);fill-rule:nonzero;"/>
        <path id="polygon37" d="M34.012,53.917L30.973,55.965L45.597,41.737L47.597,40.738L34.012,53.917Z" style="fill:rgb(128,128,128);fill-rule:nonzero;"/>
        <path id="polygon39" d="M55.516,44.305L54.168,45.648L50.538,49.059L52.166,47.454L55.516,44.305Z" style="fill:rgb(128,128,128);fill-rule:nonzero;"/>
        <path id="polygon41" d="M25.361,45.997L21.714,47.346L54.168,13.9L55.516,15.154L25.361,45.997Z" style="fill:rgb(128,128,128);fill-rule:nonzero;"/>
        <path id="polygon43" d="M54.168,45.648L54.168,13.9L55.516,15.154L55.516,44.305L54.168,45.648Z" style="fill:rgb(128,128,128);fill-rule:nonzero;"/>
        <path id="polygon45" d="M59.759,58.403L59.759,49.604L60.662,47.913L60.662,55.981L59.759,58.403Z" style="fill:rgb(128,128,128);fill-rule:nonzero;"/>
        <path id="polygon47" d="M15.82,47.006L60.507,0L61.351,2.432L19.834,45.706L15.82,47.006Z" style="fill:rgb(128,128,128);fill-rule:nonzero;"/>
        <path id="polygon49" d="M59.759,58.403L30.973,55.965L45.597,41.737L45.597,34.677L24.721,55.437L0,53.344L39.798,10.042L33.195,10.432L4.455,42.317L4.455,15.226L7.159,11.971L0.511,12.364L0.511,5.078L23.808,3.106L11.004,18.039L11.004,24.358L30.022,2.58L60.507,0L15.82,47.006L21.714,47.346L54.168,13.9L54.168,45.648L50.538,49.059L59.759,49.604L59.759,58.403Z" style="fill:rgb(128,128,128);fill-rule:nonzero;"/>
    </g>
</svg>
