<?xml version="1.0" encoding="UTF-8" standalone="no"?><!DOCTYPE svg PUBLIC "-//W3C//DTD SVG 1.1//EN" "http://www.w3.org/Graphics/SVG/1.1/DTD/svg11.dtd"><svg width="100%" height="100%" viewBox="0 0 24 24" version="1.1" xmlns="http://www.w3.org/2000/svg" xmlns:xlink="http://www.w3.org/1999/xlink" xml:space="preserve" xmlns:serif="http://www.serif.com/" style="fill-rule:evenodd;clip-rule:evenodd;stroke-linejoin:round;stroke-miterlimit:2;"><path d="M21.62,3c1.51,2.27 2.38,5.55 2.38,9c0,3.44 -0.87,6.72 -2.38,9l-1.62,-1.04c1.26,-1.89 2,-4.83 2,-7.96c0,-3.13 -0.74,-6.08 -2,-7.97l1.62,-1.03Z" style="fill:#fff;fill-rule:nonzero;"/><path d="M2.38,3l1.62,1.04c-1.26,1.88 -2,4.83 -2,7.96c0,3.13 0.74,6.08 2,7.96l-1.62,1.04c-1.51,-2.27 -2.38,-5.55 -2.38,-9c0,-3.45 0.87,-6.73 2.38,-9Z" style="fill:#fff;fill-rule:nonzero;"/><path d="M20.5,7l-12,12l-5.5,-5.5l1.41,-1.41l4.09,4.08l10.59,-10.58l1.41,1.41Z" style="fill:#fff;fill-rule:nonzero;"/><path d="M19.408,10.266l1.092,-0l0,6.005l-1.092,-0l0,-6.005Zm1.092,7.642l0,1.092l-1.092,0l0,-1.092l1.092,0Z" style="fill:#fff;fill-rule:nonzero;"/></svg>