<?xml version="1.0" encoding="UTF-8" standalone="no"?><!DOCTYPE svg PUBLIC "-//W3C//DTD SVG 1.1//EN" "http://www.w3.org/Graphics/SVG/1.1/DTD/svg11.dtd"><svg width="100%" height="100%" viewBox="0 0 45 20" version="1.1" xmlns="http://www.w3.org/2000/svg" xmlns:xlink="http://www.w3.org/1999/xlink" xml:space="preserve" xmlns:serif="http://www.serif.com/" style="fill-rule:evenodd;clip-rule:evenodd;stroke-linejoin:round;stroke-miterlimit:2;"><path d="M0,5.862l5.409,3.079l-5.409,3.18l1.19,1.789l6.483,-4.028l-0,-1.881l-6.507,-4.027l-1.166,1.888Zm14.654,11.401l0,-2.065l-8.321,0l-0,2.065l8.321,-0Z" style="fill:#fff;fill-rule:nonzero;"/><path d="M18.139,15.271c-0.315,-0.117 -0.595,-0.314 -0.811,-0.572c-0.218,-0.261 -0.384,-0.561 -0.489,-0.884c-0.111,-0.331 -0.184,-0.673 -0.219,-1.02c-0.034,-0.352 -0.038,-0.707 -0.01,-1.061c0.028,-0.363 0.077,-0.724 0.146,-1.081l0.437,-2.705c0.084,-0.492 0.22,-0.973 0.405,-1.436c0.187,-0.471 0.463,-0.902 0.812,-1.269c0.349,-0.371 0.775,-0.662 1.248,-0.853c0.458,-0.19 0.949,-0.289 1.446,-0.291c0.285,-0.001 0.568,0.038 0.842,0.114c0.263,0.072 0.505,0.204 0.708,0.385c0.202,0.182 0.368,0.401 0.489,0.645c0.122,0.244 0.213,0.503 0.27,0.77l0.999,-6.013l2.912,-0l-2.516,15.291l-2.934,0l0.229,-1.415c-0.154,0.251 -0.343,0.479 -0.562,0.676c-0.217,0.199 -0.459,0.37 -0.718,0.51c-0.255,0.138 -0.528,0.24 -0.811,0.302c-0.277,0.061 -0.559,0.093 -0.843,0.093c-0.352,0.002 -0.701,-0.061 -1.03,-0.186Zm3.266,-2.32c0.202,-0.062 0.386,-0.169 0.541,-0.312c0.158,-0.143 0.285,-0.316 0.374,-0.509c0.087,-0.185 0.147,-0.381 0.177,-0.583l0.458,-2.704c0.027,-0.167 0.048,-0.337 0.062,-0.51c0.014,-0.17 0.017,-0.341 0.011,-0.511c-0.007,-0.165 -0.032,-0.329 -0.073,-0.489c-0.038,-0.152 -0.102,-0.296 -0.188,-0.427c-0.088,-0.128 -0.21,-0.229 -0.353,-0.291c-0.15,-0.069 -0.314,-0.105 -0.479,-0.105c-0.239,0.001 -0.475,0.047 -0.697,0.135c-0.228,0.09 -0.434,0.228 -0.603,0.406c-0.169,0.174 -0.304,0.378 -0.395,0.603c-0.09,0.22 -0.15,0.451 -0.177,0.687l-0.458,2.704c-0.041,0.234 -0.059,0.471 -0.052,0.708c0.005,0.226 0.054,0.448 0.146,0.655c0.089,0.2 0.243,0.365 0.437,0.468c0.2,0.111 0.426,0.168 0.655,0.166c0.208,0.001 0.415,-0.03 0.614,-0.091l0,0Zm5.025,-0.073l2.496,0l1.727,-10.464l-1.873,-0l0,-2.414l5.201,0l-2.142,12.878l1.872,-0l0,2.413l-7.281,-0l-0,-2.413l-0,0Zm10.256,-8.613l2.933,-0l-0.228,1.394c0.169,-0.24 0.361,-0.462 0.572,-0.666c0.21,-0.205 0.448,-0.38 0.707,-0.52c0.254,-0.138 0.528,-0.236 0.811,-0.291c0.278,-0.055 0.56,-0.083 0.843,-0.084c0.352,-0.001 0.701,0.062 1.03,0.188c0.315,0.117 0.594,0.314 0.811,0.572c0.216,0.258 0.381,0.555 0.489,0.874c0.111,0.327 0.184,0.665 0.218,1.009c0.035,0.356 0.038,0.714 0.011,1.071c-0.028,0.368 -0.07,0.732 -0.125,1.092l-0.458,2.705c-0.087,0.484 -0.223,0.958 -0.406,1.414c-0.187,0.472 -0.458,0.905 -0.801,1.28c-0.344,0.38 -0.771,0.675 -1.248,0.863c-0.462,0.19 -0.957,0.289 -1.456,0.291c-0.281,-0 -0.561,-0.039 -0.832,-0.114c-0.264,-0.069 -0.507,-0.201 -0.708,-0.385c-0.197,-0.184 -0.359,-0.403 -0.478,-0.645c-0.124,-0.246 -0.221,-0.504 -0.292,-0.769l-0.998,6.012l-2.912,-0l2.517,-15.291Zm3.568,8.644c0.228,-0.09 0.434,-0.228 0.604,-0.405c0.171,-0.177 0.305,-0.385 0.395,-0.614c0.087,-0.218 0.153,-0.445 0.198,-0.676l0.437,-2.704c0.041,-0.234 0.058,-0.471 0.052,-0.708c-0.005,-0.226 -0.055,-0.448 -0.146,-0.655c-0.09,-0.2 -0.243,-0.365 -0.437,-0.468c-0.2,-0.111 -0.426,-0.168 -0.655,-0.167c-0.208,0 -0.415,0.032 -0.614,0.094c-0.201,0.062 -0.386,0.169 -0.54,0.312c-0.157,0.141 -0.282,0.315 -0.366,0.509c-0.081,0.188 -0.143,0.383 -0.187,0.583l-0.437,2.704c-0.028,0.167 -0.052,0.336 -0.072,0.51c-0.021,0.165 -0.025,0.333 -0.011,0.499c0.014,0.161 0.038,0.321 0.073,0.479c0.033,0.155 0.093,0.302 0.177,0.436c0.085,0.134 0.208,0.239 0.353,0.302c0.151,0.069 0.314,0.105 0.479,0.105c0.239,-0.001 0.475,-0.047 0.697,-0.136Z" style="fill:#f40000;fill-rule:nonzero;"/></svg>